<svg width="311" height="129" viewBox="0 0 311 129" fill="none" xmlns="http://www.w3.org/2000/svg">
<path fill-rule="evenodd" clip-rule="evenodd" d="M93.152 127.264V79.048C93.152 67.6375 90.6775 58.5745 85.7286 51.8591C84.5695 50.2864 83.2748 48.8424 81.8443 47.5272C81.6416 47.3408 81.4362 47.1571 81.228 46.9759C80.9438 46.7284 80.6544 46.4858 80.36 46.248C79.3464 45.4187 78.2821 44.6393 77.167 43.9098C74.1698 41.949 70.8061 40.3489 67.076 39.1096C66.6939 38.9826 66.3079 38.8595 65.9181 38.7401C65.6522 38.6586 65.3845 38.5789 65.115 38.501C60.9602 37.2997 56.3799 36.5171 51.3743 36.1532C49.8146 36.0398 48.2135 35.9671 46.5711 35.935C45.9232 35.9223 45.2688 35.916 44.608 35.916C40.3377 35.916 36.0064 36.2417 31.614 36.8933C31.5971 36.8957 31.5803 36.8983 31.5635 36.9008C31.2653 36.9452 30.9668 36.9911 30.668 37.0385C30.4247 37.0771 30.1812 37.1167 29.9375 37.1572C27.6823 37.5329 25.4111 37.9938 23.124 38.54C21.7964 38.857 20.5029 39.1992 19.2435 39.5666C19.035 39.6274 18.8275 39.6888 18.6209 39.751C17.2325 40.1689 15.8862 40.6179 14.5822 41.098C10.7847 42.4962 7.34533 44.1582 4.264 46.084L16.072 70.52C16.8475 69.9455 17.6645 69.405 18.5231 68.8985C20.839 67.532 23.457 66.4127 26.377 65.5404C26.4949 65.5052 26.6132 65.4704 26.732 65.436C27.6133 65.1577 28.4922 64.9089 29.3687 64.6896C31.2942 64.2078 33.2078 63.8686 35.1096 63.6718C36.4227 63.5359 37.7302 63.468 39.032 63.468C39.7095 63.468 40.3655 63.4826 41 63.5117C43.5379 63.6283 45.7316 63.978 47.5811 64.5609C47.8595 64.6487 48.1301 64.7417 48.3929 64.84C49.8218 65.3745 51.0202 66.0652 51.988 66.912C54.0694 68.6604 55.3583 71.0111 55.8548 73.964H41C40.9678 73.964 40.9356 73.964 40.9034 73.964C40.2723 73.9645 39.6485 73.9698 39.032 73.9799C35.6765 74.0349 32.5381 74.232 29.6169 74.5715C29.5393 74.5805 29.4618 74.5897 29.3844 74.5989C28.0109 74.7627 26.6857 74.9582 25.409 75.1854C25.3075 75.2035 25.2063 75.2218 25.1054 75.2402C23.4424 75.5446 21.8625 75.9033 20.3657 76.3166C19.5086 76.5532 18.6787 76.8077 17.876 77.08C17.2902 77.2824 16.7189 77.4941 16.1621 77.7151C11.0038 79.7632 7.09242 82.6128 4.428 86.264C1.75597 89.9257 0.293251 94.3039 0.03983 99.3989C0.0132767 99.9327 0 100.474 0 101.024C0 106.163 1.25733 110.864 3.772 115.128C6.28667 119.283 10.004 122.617 14.924 125.132C17.7456 126.574 20.9627 127.603 24.5753 128.218C26.9547 128.623 29.5056 128.849 32.228 128.895C32.5798 128.901 32.9345 128.904 33.292 128.904C37.4682 128.904 41.1855 128.429 44.444 127.48C44.6825 127.411 44.9185 127.339 45.152 127.264C47.6592 126.464 49.8832 125.37 51.824 123.984C52.6805 123.372 53.4818 122.701 54.228 121.972V101.833C53.4217 102.968 52.4563 103.901 51.332 104.632C49.9991 105.474 48.5762 106.046 47.0632 106.347C47.0103 106.358 46.9572 106.368 46.904 106.378C46.8892 106.381 46.8743 106.383 46.8595 106.386C46.0781 106.529 45.2729 106.6 44.444 106.6C41.8521 106.6 39.7517 106.01 38.1429 104.83C38.1428 104.83 38.143 104.83 38.1429 104.83C38.0552 104.766 37.9688 104.7 37.884 104.632C37.0601 103.867 36.4579 103.007 36.0774 102.052C36.0486 101.979 36.021 101.906 35.9947 101.833C35.984 101.803 35.9735 101.773 35.9632 101.742C35.8938 101.539 35.8341 101.332 35.7839 101.121C35.6533 100.57 35.588 99.9908 35.588 99.384C35.588 96.8693 36.4627 95.0107 38.212 93.808C38.969 93.2736 39.8984 92.8481 41 92.5314C41.031 92.5224 41.0621 92.5136 41.0934 92.5049C41.4128 92.4156 41.7464 92.3353 42.0943 92.264C42.4396 92.1933 42.7988 92.1314 43.1721 92.0783C43.2426 92.0683 43.3135 92.0586 43.385 92.0492C43.7266 92.0044 44.0796 91.9668 44.444 91.9363C45.2132 91.8721 46.0332 91.84 46.904 91.84H56.088V92.264H59.228V127.264H93.152ZM70.0846 28.7793C70.3519 28.7332 70.616 28.6807 70.8769 28.6218C71.9041 28.3899 72.8816 28.0586 73.8095 27.628C75.1705 26.9964 76.4247 26.151 77.572 25.092C79.3413 23.4588 80.56 21.4868 81.228 19.176C81.5286 18.1363 81.7177 17.0281 81.7954 15.8512C81.8225 15.4412 81.836 15.0227 81.836 14.596C81.836 13.4641 81.7408 12.3907 81.5504 11.376C81.005 8.47017 79.6789 6.04484 77.572 4.09999C75.4297 2.04006 72.9147 0.756346 70.0272 0.248852C69.0833 0.0829512 68.0996 0 67.076 0C62.9213 0 59.4227 1.36666 56.58 4.09999C55.0186 5.54128 53.886 7.24644 53.1823 9.21549C52.6048 10.8313 52.316 12.6248 52.316 14.596C52.316 18.9693 53.7373 22.468 56.58 25.092C59.4227 27.716 62.9213 29.028 67.076 29.028C68.1203 29.028 69.1232 28.9451 70.0846 28.7793ZM78.771 11.376H72.3142C72.28 10.8948 72.2379 10.4136 72.188 9.93269C72.1807 9.86265 72.1733 9.79263 72.1656 9.72261C72.1172 9.27715 72.0619 8.83198 71.9997 8.38731C71.7356 6.49938 71.3464 4.62046 70.8242 2.76608C72.4557 3.3791 73.844 4.28349 74.8936 5.2523C75.1665 5.50422 75.4333 5.77217 75.6922 6.055C75.7047 6.06863 75.7171 6.08229 75.7295 6.09598C76.8051 7.28057 77.7404 8.72248 78.3966 10.3378C78.5429 10.6981 78.6666 11.045 78.771 11.376ZM27.7168 0.248851C24.8293 0.756346 22.3143 2.04006 20.172 4.09999C17.8039 6.28596 16.4221 9.07894 16.0268 12.4789C15.9476 13.1603 15.908 13.8659 15.908 14.596C15.908 18.7934 17.2173 22.1852 19.8359 24.7712C19.8359 24.7711 19.8359 24.7712 19.8359 24.7712C19.9456 24.8795 20.0577 24.9865 20.172 25.092C22.3001 27.0564 24.7959 28.2855 27.6594 28.7793C28.6208 28.9451 29.6237 29.028 30.668 29.028C34.8227 29.028 38.3213 27.716 41.164 25.092C42.7601 23.6187 43.9081 21.8697 44.608 19.8449C45.1547 18.2635 45.428 16.5138 45.428 14.596C45.428 12.6782 45.1547 10.9285 44.608 9.34711C44.5578 9.20203 44.5054 9.05836 44.4506 8.91611C43.7413 7.07309 42.6457 5.46773 41.164 4.09999C38.3213 1.36666 34.8227 0 30.668 0C29.6444 0 28.6607 0.0829503 27.7168 0.248851ZM25.4985 10.5247C25.5164 10.3273 25.5355 10.13 25.556 9.93269C25.5633 9.86266 25.5707 9.79263 25.5784 9.72262C25.6268 9.27715 25.6821 8.83197 25.7443 8.3873C26.0084 6.49937 26.3976 4.62046 26.9198 2.76608C25.2883 3.37911 23.9 4.28348 22.8504 5.2523C22.5775 5.50423 22.3107 5.77218 22.0518 6.05501C22.0393 6.06863 22.0269 6.08229 22.0145 6.09599C20.9389 7.28059 20.0036 8.72249 19.3474 10.3378C19.1341 10.8628 18.969 11.3595 18.8416 11.8198C21.0585 11.3269 23.2777 10.8946 25.4985 10.5247ZM157.42 92.7211L179.854 38.376H209.538L172.802 127.264H140.658L104.086 38.376H136.066L157.42 92.7211ZM218.228 63.9534C215.766 69.6045 214.535 75.8387 214.535 82.656C214.535 86.5932 214.956 90.3466 215.799 93.9164C216.397 96.4481 217.206 98.8873 218.228 101.234C219.006 103.022 219.907 104.756 220.931 106.436C221.651 107.57 222.416 108.665 223.228 109.721C225.501 112.68 228.133 115.337 231.125 117.692C231.204 117.754 231.283 117.816 231.362 117.877C231.973 118.352 232.599 118.814 233.24 119.264C235.083 120.557 237.048 121.748 239.135 122.836C240.69 123.614 242.296 124.314 243.954 124.938C244.158 125.015 244.363 125.091 244.568 125.165C251.147 127.548 258.52 128.74 266.687 128.74C267.017 128.74 267.345 128.738 267.671 128.735C272.061 128.686 276.14 128.312 279.908 127.613C282.646 127.105 285.22 126.426 287.63 125.574C287.767 125.526 287.903 125.477 288.039 125.428C288.304 125.331 288.566 125.233 288.827 125.132C293.222 123.359 297.127 121.042 300.543 118.181C300.736 118.02 300.927 117.857 301.116 117.692C301.991 116.932 302.832 116.134 303.641 115.3C303.956 114.975 304.266 114.644 304.571 114.308L288.171 97.252C287.752 97.6108 287.333 97.9574 286.912 98.2917C285.473 99.4354 284.022 100.435 282.559 101.292C281.75 101.765 280.938 102.194 280.123 102.58C280.012 102.632 279.901 102.684 279.79 102.735C279.468 102.882 279.146 103.022 278.823 103.156C275.762 104.359 272.044 104.96 267.671 104.96C267.34 104.96 267.012 104.956 266.687 104.948C262.403 104.84 258.686 104.024 255.535 102.5C254.817 102.129 254.133 101.727 253.483 101.292C252.692 100.763 251.952 100.186 251.263 99.5626C251.155 99.4643 251.047 99.3647 250.941 99.264C250.937 99.2597 250.932 99.2553 250.928 99.251C250.688 99.023 250.455 98.789 250.228 98.549C249.937 98.2411 249.657 97.9233 249.387 97.5956C248.754 96.8251 248.179 95.9999 247.663 95.12C247.165 94.2168 246.737 93.2648 246.381 92.264H245.228V72.264H245.891C246.036 71.739 246.199 71.2271 246.381 70.7284C246.56 70.2385 246.756 69.7614 246.97 69.297C247.087 69.0449 247.208 68.7966 247.335 68.552C247.938 67.3457 248.635 66.2497 249.425 65.264C249.516 65.1503 249.608 65.0379 249.702 64.9271C249.769 64.8484 249.836 64.7704 249.903 64.6932C250.01 64.5717 250.118 64.452 250.228 64.3342C250.433 64.1137 250.644 63.8996 250.86 63.692C251.729 62.8575 252.686 62.1268 253.731 61.5C256.532 59.8842 259.757 59.0643 263.407 59.0405C263.462 59.0402 263.516 59.04 263.571 59.04C267.288 59.04 270.514 59.86 273.247 61.5C274.344 62.1329 275.344 62.8636 276.245 63.692C276.341 63.7796 276.435 63.8683 276.528 63.958C276.603 64.0301 276.677 64.1028 276.75 64.1763C277.961 65.3885 278.98 66.7925 279.807 68.388C279.866 68.4948 279.925 68.6023 279.982 68.7105C280.413 69.5293 280.779 70.3891 281.08 71.2898C281.398 72.2445 281.643 73.2453 281.814 74.292H250.228V90.692H310.475C310.584 89.4893 310.694 88.1773 310.803 86.756C310.852 86.1199 310.89 85.5167 310.917 84.9463C310.95 84.2422 310.967 83.5881 310.967 82.984C310.967 82.6535 310.965 82.3246 310.96 81.9974C310.925 79.623 310.763 77.3362 310.475 75.1372C309.935 71.0138 308.949 67.1987 307.517 63.692C306.875 62.1185 306.143 60.6072 305.321 59.1579C305.079 58.7305 304.829 58.3086 304.571 57.892C304.202 57.2951 303.821 56.7109 303.429 56.1394C303.284 55.9275 303.137 55.7174 302.989 55.509C298.923 49.7941 293.71 45.3951 287.351 42.312C286.685 41.9788 286.012 41.6609 285.332 41.3584C285.209 41.3035 285.085 41.2492 284.961 41.1953C278.43 38.3519 271.3 36.9202 263.571 36.9002C263.516 36.9001 263.462 36.9 263.407 36.9C255.596 36.9 248.442 38.2901 241.945 41.0703C241.82 41.1238 241.695 41.1778 241.57 41.2323C240.466 41.7157 239.381 42.2396 238.315 42.804C237.707 43.1171 237.109 43.4409 236.522 43.7753C235.688 44.2501 234.876 44.7464 234.084 45.264C233.102 45.907 232.153 46.583 231.236 47.292C231.222 47.3032 231.207 47.3144 231.193 47.3255C228.908 49.0982 226.828 51.0768 224.955 53.2612C224.358 53.9566 223.783 54.6727 223.228 55.4098C222.356 56.5683 221.536 57.7784 220.767 59.04C219.811 60.6257 218.964 62.2635 218.228 63.9534Z" fill="#005E25"/>
</svg>
