<svg width="58" height="21" viewBox="0 0 58 21" fill="none" xmlns="http://www.w3.org/2000/svg">
<path d="M1.5 19.6435L9.72979 1H14.9233L23.1798 19.6435H17.6932L11.2479 3.58346H13.3253L6.87999 19.6435H1.5ZM6.00108 16.0214L7.3594 12.1329H16.4681L17.8264 16.0214H6.00108Z" stroke="#111111"/>
<path d="M26.1443 19.6435V11.76L27.3694 14.9294L19.0331 1H24.5995L30.6187 11.0941H27.3961L33.4419 1H38.5556L30.2459 14.9294L31.4177 11.76V19.6435H26.1443Z" stroke="#111111"/>
<path d="M39 19.6435V1H47.5228C49.2273 1 50.6922 1.27521 51.9173 1.82564C53.1602 2.37607 54.119 3.17508 54.7937 4.22267C55.4685 5.2525 55.8058 6.47765 55.8058 7.89811C55.8058 9.30081 55.4685 10.5171 54.7937 11.5469C54.119 12.559 53.1602 13.3402 51.9173 13.8907C50.6922 14.4233 49.2273 14.6897 47.5228 14.6897H41.9297L44.2735 12.4791V19.6435H39ZM50.5324 19.6435L45.8981 12.852H51.5178L56.1787 19.6435H50.5324ZM44.2735 13.0384L41.9297 10.6147H47.2032C48.304 10.6147 49.1208 10.375 49.6535 9.89563C50.2039 9.41623 50.4791 8.75039 50.4791 7.89811C50.4791 7.02808 50.2039 6.35336 49.6535 5.87395C49.1208 5.39455 48.304 5.15485 47.2032 5.15485H41.9297L44.2735 2.73119V13.0384Z" stroke="#111111"/>
</svg>
